<?xml version="1.0" encoding="utf-8"?>
<!-- Generator: Adobe Illustrator 17.0.0, SVG Export Plug-In . SVG Version: 6.00 Build 0)  -->
<!DOCTYPE svg PUBLIC "-//W3C//DTD SVG 1.1//EN" "http://www.w3.org/Graphics/SVG/1.1/DTD/svg11.dtd">
<svg version="1.1" id="Layer_1" xmlns="http://www.w3.org/2000/svg" xmlns:xlink="http://www.w3.org/1999/xlink" x="0px" y="0px"
	 width="6.274px" height="48.338px" viewBox="0 0 6.274 48.338" enable-background="new 0 0 6.274 48.338" xml:space="preserve">
<path fill="#010101" d="M4.18,41.996c0.129-0.4,0.156-0.755,0.156-0.949c0-0.355-0.083-1.291-0.755-2.045
	c-0.672-0.754-1.221-1.551-1.221-1.773c0-0.222,0.549-1.019,1.221-1.773c0.672-0.754,1.221-1.642,1.221-1.974
	c0-0.151-0.118-0.436-0.306-0.778h0.038c-0.054-0.078-0.116-0.155-0.173-0.234c-0.213-0.354-0.483-0.748-0.78-1.121
	c-0.097-0.122-0.186-0.247-0.276-0.371c-0.269-0.447-0.445-0.831-0.445-1.016c0-0.331,0.549-1.218,1.221-1.972
	c0.672-0.754,1.221-1.661,1.221-2.016c0-0.355-0.549-1.262-1.221-2.016c-0.672-0.754-1.221-1.551-1.221-1.773
	c0-0.222,0.549-1.019,1.221-1.773c0.1-0.113,0.15-0.23,0.244-0.346c0.571-0.694,0.977-1.447,0.977-1.763
	c0-0.355-0.549-1.262-1.221-2.016c-0.672-0.754-1.221-1.551-1.221-1.773c0-0.222,0.549-1.019,1.221-1.773
	c0.672-0.754,1.221-1.642,1.221-1.974c0-0.332-0.549-1.292-1.221-2.132C3.41,7.795,2.861,6.836,2.861,6.505
	c0-0.331,0.549-1.218,1.221-1.972C5.51,2.93,5.588,2.285,4.512,0.963C3.625-0.127,2.966-0.353,3.46,0.602
	c0.48,0.928,0.412,1.13-0.905,2.704C1.884,4.109,1.334,5.029,1.334,5.35c0,0.321,0.549,1.303,1.221,2.182
	C3.227,8.41,3.776,9.35,3.776,9.619c0,0.27-0.549,1.106-1.221,1.86c-0.672,0.753-1.221,1.685-1.221,2.07
	c0,0.391,0.538,1.268,1.221,1.988c0.672,0.709,1.221,1.47,1.221,1.692c0,0.222-0.549,1.061-1.221,1.863
	c-0.277,0.331-0.51,0.675-0.716,0.995c-0.304,0.468-0.505,0.901-0.505,1.132c0,0.391,0.538,1.268,1.221,1.988
	c0.672,0.709,1.221,1.47,1.221,1.692c0,0.222-0.549,1.061-1.221,1.863c-0.672,0.802-1.221,1.722-1.221,2.043
	c0,0.321,0.549,1.303,1.221,2.182c0.081,0.106,0.157,0.213,0.234,0.32c0.295,0.475,0.487,0.867,0.487,1.026
	c0,0.269-0.549,1.106-1.221,1.86c-0.672,0.753-1.221,1.685-1.221,2.07c0,0.391,0.538,1.268,1.221,1.988
	c0.672,0.709,1.221,1.47,1.221,1.692c0,0.222-0.06,1.134-0.732,1.937c-0.093,0.111-0.162,0.223-0.223,0.335L0,40.263l3.137,8.075
	l3.137-8.075L4.18,41.996z"/>
</svg>
