<?xml version="1.0" encoding="utf-8"?>
<!-- Generator: Adobe Illustrator 17.0.0, SVG Export Plug-In . SVG Version: 6.00 Build 0)  -->
<!DOCTYPE svg PUBLIC "-//W3C//DTD SVG 1.1//EN" "http://www.w3.org/Graphics/SVG/1.1/DTD/svg11.dtd">
<svg version="1.1" id="Layer_1" xmlns="http://www.w3.org/2000/svg" xmlns:xlink="http://www.w3.org/1999/xlink" x="0px" y="0px"
	 width="5.925px" height="25.351px" viewBox="0 0 5.925 25.351" enable-background="new 0 0 5.925 25.351" xml:space="preserve">
<path fill="#010101" d="M5.081,11.338c0-0.367-0.587-1.303-1.304-2.081S2.474,7.656,2.474,7.427c0-0.004,0.007-0.014,0.007-0.018
	h3.445L2.963,0L0,7.409h1.28c0.23,0.349,0.529,0.728,0.868,1.074C2.865,9.214,3.451,10,3.451,10.23s-0.587,1.095-1.304,1.924
	s-1.304,1.778-1.304,2.109s0.587,1.345,1.304,2.252c0.717,0.907,1.304,1.877,1.304,2.155s-0.587,1.142-1.304,1.92
	c-1.524,1.653-1.614,2.39-0.46,3.761c0.837,0.995,1.438,1.286,1.438,0.696c0-0.169-0.147-0.397-0.326-0.508
	c-0.63-0.389-0.314-1.244,0.978-2.645c0.717-0.778,1.304-1.695,1.304-2.038s-0.587-1.334-1.304-2.202s-1.304-1.857-1.304-2.199
	s0.587-1.258,1.304-2.036C4.495,12.641,5.081,11.705,5.081,11.338z"/>
</svg>
