<?xml version="1.0" encoding="utf-8"?>
<!-- Generator: Adobe Illustrator 17.0.0, SVG Export Plug-In . SVG Version: 6.00 Build 0)  -->
<!DOCTYPE svg PUBLIC "-//W3C//DTD SVG 1.1//EN" "http://www.w3.org/Graphics/SVG/1.1/DTD/svg11.dtd">
<svg version="1.1" id="Layer_1" xmlns="http://www.w3.org/2000/svg" xmlns:xlink="http://www.w3.org/1999/xlink" x="0px" y="0px"
	 width="6.274px" height="60.338px" viewBox="0 0 6.274 60.338" enable-background="new 0 0 6.274 60.338" xml:space="preserve">
<path fill="#010101" d="M3.69,54.402c-0.065-0.094-0.13-0.189-0.183-0.291c-0.406-0.782-0.616-1.551-0.616-1.773
	c0-0.222,0.549-1.019,1.221-1.773c0.672-0.754,1.221-1.642,1.221-1.974c0-0.248-0.322-0.877-0.758-1.515
	c-0.128-0.183-0.497-0.672-0.64-0.852c-0.371-0.665-0.943-1.488-0.943-1.689c0-0.331,0.417-0.747,1.089-1.501
	c0.672-0.754,1.221-1.661,1.221-2.016c0-0.355-0.549-1.262-1.221-2.016c-0.672-0.754-1.221-1.551-1.221-1.773
	c0-0.222,0.549-1.019,1.221-1.773c0.672-0.754,1.221-1.642,1.221-1.974c0-0.151-0.118-0.436-0.306-0.778h0.038
	c-0.054-0.078-0.116-0.155-0.173-0.234c-0.213-0.354-0.483-0.748-0.78-1.121c-0.097-0.122-0.186-0.247-0.276-0.371
	c-0.269-0.447-0.445-0.831-0.445-1.016c0-0.331,0.549-1.218,1.221-1.972c0.672-0.754,1.221-1.661,1.221-2.016
	c0-0.355-0.549-1.262-1.221-2.016c-0.672-0.754-1.221-1.551-1.221-1.773c0-0.222,0.549-1.019,1.221-1.773
	c0.1-0.113,0.15-0.23,0.244-0.346c0.571-0.694,0.977-1.447,0.977-1.763c0-0.355-0.549-1.262-1.221-2.016
	c-0.672-0.754-1.221-1.551-1.221-1.773c0-0.222,0.549-1.019,1.221-1.773c0.672-0.754,1.221-1.642,1.221-1.974
	c0-0.332-0.549-1.292-1.221-2.132C3.91,7.795,3.361,6.836,3.361,6.505c0-0.331,0.549-1.218,1.221-1.972
	C6.01,2.93,6.088,2.285,5.012,0.963C4.125-0.127,3.466-0.353,3.96,0.602c0.48,0.928,0.412,1.13-0.905,2.704
	C2.384,4.109,1.834,5.029,1.834,5.35c0,0.321,0.549,1.303,1.221,2.182C3.727,8.41,4.276,9.35,4.276,9.619
	c0,0.27-0.549,1.106-1.221,1.86c-0.672,0.753-1.221,1.685-1.221,2.07c0,0.391,0.538,1.268,1.221,1.988
	c0.672,0.709,1.221,1.47,1.221,1.692c0,0.222-0.549,1.061-1.221,1.863c-0.277,0.331-0.51,0.675-0.716,0.995
	c-0.304,0.468-0.505,0.901-0.505,1.132c0,0.391,0.538,1.268,1.221,1.988c0.672,0.709,1.221,1.47,1.221,1.692
	c0,0.222-0.549,1.061-1.221,1.863c-0.672,0.802-1.221,1.722-1.221,2.043c0,0.321,0.549,1.303,1.221,2.182
	c0.081,0.106,0.157,0.213,0.234,0.32c0.295,0.475,0.487,0.867,0.487,1.026c0,0.269-0.549,1.106-1.221,1.86
	c-0.672,0.753-1.221,1.685-1.221,2.07c0,0.391,0.538,1.268,1.221,1.988c0.672,0.709,1.221,1.47,1.221,1.692
	c0,0.222-0.549,1.061-1.221,1.863c-0.672,0.802-1.221,1.722-1.221,2.043c0,0.321,0.83,1.308,1.502,2.187
	c0.274,0.358,0.481,0.771,0.699,1.097c0.075,0.161,0.129,0.3,0.129,0.374c0,0.269-0.406,1.04-1.078,1.794
	c-0.672,0.754-1.221,1.685-1.221,2.07c0,0.391,0.489,1.211,1.065,2.02c0.447,0.628,0.661,1.139,0.737,1.444l-0.055,0.045L0,52.263
	l3.137,8.075l3.137-8.075L3.69,54.402z"/>
</svg>
