<?xml version="1.0" encoding="utf-8"?>
<!-- Generator: Adobe Illustrator 17.0.0, SVG Export Plug-In . SVG Version: 6.00 Build 0)  -->
<!DOCTYPE svg PUBLIC "-//W3C//DTD SVG 1.1//EN" "http://www.w3.org/Graphics/SVG/1.1/DTD/svg11.dtd">
<svg version="1.1" id="Layer_1" xmlns="http://www.w3.org/2000/svg" xmlns:xlink="http://www.w3.org/1999/xlink" x="0px" y="0px"
	 width="6.274px" height="24.276px" viewBox="0 0 6.274 24.276" enable-background="new 0 0 6.274 24.276" xml:space="preserve">
<path fill="#010101" d="M4.572,17.609c-0.224-0.404-0.558-0.883-0.949-1.322c-0.672-0.754-1.221-1.551-1.221-1.773
	c0-0.222,0.549-1.019,1.221-1.773c0.672-0.754,1.221-1.642,1.221-1.974c0-0.332-0.549-1.292-1.221-2.132
	c-0.672-0.841-1.221-1.799-1.221-2.13c0-0.331,0.549-1.218,1.221-1.972C5.052,2.93,5.13,2.285,4.054,0.963
	c-0.887-1.09-1.547-1.316-1.052-0.361c0.48,0.928,0.412,1.13-0.905,2.704C1.425,4.109,0.876,5.029,0.876,5.35
	c0,0.321,0.549,1.303,1.221,2.182C2.769,8.41,3.318,9.35,3.318,9.619c0,0.27-0.549,1.106-1.221,1.86
	c-0.672,0.753-1.221,1.685-1.221,2.07c0,0.391,0.538,1.268,1.221,1.988c0.672,0.709,1.221,1.47,1.221,1.692
	c0,0.159-0.283,0.634-0.688,1.183L0,16.2l3.137,8.075L6.274,16.2L4.572,17.609z"/>
</svg>
