<?xml version="1.0" encoding="utf-8"?>
<!-- Generator: Adobe Illustrator 17.0.0, SVG Export Plug-In . SVG Version: 6.00 Build 0)  -->
<!DOCTYPE svg PUBLIC "-//W3C//DTD SVG 1.1//EN" "http://www.w3.org/Graphics/SVG/1.1/DTD/svg11.dtd">
<svg version="1.1" id="Layer_1" xmlns="http://www.w3.org/2000/svg" xmlns:xlink="http://www.w3.org/1999/xlink" x="0px" y="0px"
	 width="4.468px" height="59.971px" viewBox="0 0 4.468 59.971" enable-background="new 0 0 4.468 59.971" xml:space="preserve">
<path fill="#010101" d="M3.247,19.645c0.672-0.729,1.221-1.605,1.221-1.949c0-0.343-0.549-1.22-1.221-1.949
	c-0.672-0.729-1.221-1.5-1.221-1.714s0.549-0.986,1.221-1.714c0.672-0.729,1.221-1.587,1.221-1.909S3.919,9.162,3.247,8.349
	C2.576,7.536,2.026,6.61,2.026,6.289c0-0.32,0.549-1.178,1.221-1.907c1.429-1.55,1.506-2.173,0.431-3.452
	C2.791-0.123,2.131-0.341,2.626,0.583c0.48,0.897,0.412,1.093-0.905,2.615C1.049,3.973,0.5,4.862,0.5,5.172s0.549,1.26,1.221,2.109
	C2.393,8.131,2.942,9.039,2.942,9.3c0,0.261-0.549,1.07-1.221,1.798C1.049,11.827,0.5,12.727,0.5,13.1
	c0,0.378,0.538,1.226,1.221,1.922c0.672,0.685,1.221,1.421,1.221,1.636s-0.549,1.026-1.221,1.802
	C1.049,19.236,0.5,20.124,0.5,20.435s0.549,1.26,1.221,2.109c0.081,0.103,0.157,0.206,0.234,0.309
	c0.295,0.459,0.487,0.838,0.487,0.992c0,0.26-0.549,1.07-1.221,1.798C0.549,26.372,0,27.272,0,27.644
	c0,0.378,0.538,1.226,1.221,1.922c0.672,0.685,1.221,1.421,1.221,1.636s-0.549,1.026-1.221,1.802C0.549,33.78,0,34.669,0,34.98
	c0,0.31,0.83,1.265,1.502,2.114c0.274,0.346,0.481,0.745,0.699,1.06c0.075,0.156,0.129,0.29,0.129,0.362
	c0,0.26-0.406,1.006-1.078,1.734c-0.672,0.729-1.221,1.629-1.221,2.001c0,0.378,0.538,1.226,1.221,1.922
	c0.672,0.685,1.221,1.421,1.221,1.636s-0.549,1.026-1.221,1.802c-0.672,0.776-1.221,1.665-1.221,1.975
	c0,0.31,0.549,1.26,1.221,2.109c0.672,0.85,1.221,1.758,1.221,2.018s-0.549,1.07-1.221,1.798c-1.427,1.548-1.511,2.238-0.431,3.522
	c0.784,0.932,1.346,1.204,1.346,0.652c0-0.158-0.137-0.372-0.305-0.476c-0.59-0.364-0.294-1.165,0.916-2.477
	C3.45,56.005,4,55.146,4,54.825s-0.549-1.249-1.221-2.062c-0.672-0.813-1.221-1.739-1.221-2.06c0-0.32,0.549-1.178,1.221-1.907
	C3.45,48.069,4,47.192,4,46.848c0-0.343-0.549-1.22-1.221-1.949c-0.672-0.729-1.221-1.5-1.221-1.714s0.549-0.986,1.221-1.714
	C3.45,40.743,4,39.884,4,39.562c0-0.24-0.322-0.848-0.758-1.465l0,0c-0.004-0.005,0.004,0.005,0,0c-0.022-0.026,0.023,0.026,0,0
	c-0.128-0.177-0.497-0.65-0.64-0.824c-0.093-0.113,0.144,0.115,0,0c-0.371-0.643-0.943-1.439-0.943-1.633
	c0-0.32,0.417-0.722,1.089-1.451c0.672-0.729,1.221-1.605,1.221-1.949c0-0.343-0.549-1.22-1.221-1.949
	c-0.672-0.729-1.221-1.5-1.221-1.714s0.549-0.986,1.221-1.714c0.672-0.729,1.221-1.588,1.221-1.909c0-0.146-0.118-0.422-0.306-0.752
	h0.038c-0.054-0.075-0.116-0.15-0.173-0.226c-0.213-0.343-0.483-0.723-0.78-1.084c-0.097-0.118-0.186-0.239-0.276-0.359
	c-0.269-0.433-0.445-0.804-0.445-0.983C2.026,21.232,2.576,20.374,3.247,19.645z"/>
</svg>
