<?xml version="1.0" encoding="utf-8"?>
<!-- Generator: Adobe Illustrator 17.0.0, SVG Export Plug-In . SVG Version: 6.00 Build 0)  -->
<!DOCTYPE svg PUBLIC "-//W3C//DTD SVG 1.1//EN" "http://www.w3.org/Graphics/SVG/1.1/DTD/svg11.dtd">
<svg version="1.1" id="层_1" xmlns="http://www.w3.org/2000/svg" xmlns:xlink="http://www.w3.org/1999/xlink" x="0px" y="0px"
	 width="12.896px" height="57px" viewBox="-3.917 0 12.896 57" enable-background="new -3.917 0 12.896 57" xml:space="preserve">
<path stroke="#000000" stroke-linecap="square" stroke-miterlimit="10" d="M0.5,0.5v56h4v-56H0.5z M11.5,17.5c0,1.1,0.9,2,2,2
	s2-0.9,2-2s-0.9-2-2-2S11.5,16.4,11.5,17.5z M11.5,39.5c0,1.1,0.9,2,2,2s2-0.9,2-2s-0.9-2-2-2S11.5,38.4,11.5,39.5z M8.5,56.5v-56
	h-1v56H8.5z M-10.417,17.5c0,1.1,0.9,2,2,2s2-0.9,2-2s-0.9-2-2-2S-10.417,16.4-10.417,17.5z M-10.417,39.5c0,1.1,0.9,2,2,2
	s2-0.9,2-2s-0.9-2-2-2S-10.417,38.4-10.417,39.5z M-2.417,56.5v-56h-1v56H-2.417z"/>
</svg>
