<?xml version="1.0" encoding="utf-8"?>
<!-- Generator: Adobe Illustrator 17.0.0, SVG Export Plug-In . SVG Version: 6.00 Build 0)  -->
<!DOCTYPE svg PUBLIC "-//W3C//DTD SVG 1.1//EN" "http://www.w3.org/Graphics/SVG/1.1/DTD/svg11.dtd">
<svg version="1.1" id="Layer_1" xmlns="http://www.w3.org/2000/svg" xmlns:xlink="http://www.w3.org/1999/xlink" x="0px" y="0px"
	 width="9px" height="9px" viewBox="1.5 1.5 9 9" enable-background="new 1.5 1.5 9 9" xml:space="preserve">
<path id="text62" fill="#010101" d="M1.65,1.566c-0.198,0.131-0.198,0.099,0,1.744c0.066,0.79,0.165,1.514,0.198,1.58
	c0.066,0.164,0.165,0.197,0.725,0.23c0.592,0.032,1.153,0.131,1.549,0.296c0.264,0.099,0.692,0.362,0.823,0.494l0.066,0.099
	L4.946,6.106c-0.132,0.132-0.56,0.395-0.823,0.494C3.726,6.764,3.166,6.862,2.573,6.895c-0.56,0.033-0.658,0.066-0.724,0.23
	c-0.033,0.066-0.132,0.79-0.231,1.58c-0.132,1.415-0.132,1.481-0.099,1.612c0.033,0.066,0.099,0.131,0.165,0.164
	c0.132,0.033,0.198,0.033,1.615-0.099c0.791-0.099,1.516-0.197,1.582-0.197c0.165-0.099,0.198-0.197,0.231-0.691
	C5.177,8.738,5.243,8.277,5.44,7.817C5.539,7.553,5.769,7.192,5.901,7.06L6,6.994L6.099,7.06C6.231,7.192,6.461,7.554,6.56,7.817
	c0.198,0.461,0.264,0.921,0.329,1.678c0.033,0.494,0.066,0.593,0.231,0.691c0.066,0,0.791,0.099,1.582,0.197
	c1.417,0.131,1.483,0.131,1.615,0.099c0.066-0.033,0.132-0.099,0.165-0.164c0.033-0.131,0.033-0.197-0.099-1.612
	c-0.099-0.79-0.198-1.514-0.231-1.58c-0.066-0.164-0.165-0.197-0.725-0.23C8.834,6.862,8.274,6.764,7.878,6.599
	C7.615,6.501,7.186,6.238,7.054,6.106L6.988,6.007l0.066-0.099c0.132-0.131,0.56-0.395,0.823-0.494
	c0.395-0.164,0.955-0.263,1.549-0.296c0.56-0.033,0.659-0.066,0.725-0.23c0.033-0.066,0.132-0.79,0.231-1.58
	c0.132-1.415,0.132-1.481,0.099-1.612c-0.033-0.066-0.099-0.131-0.165-0.164C10.185,1.5,10.119,1.5,8.702,1.631
	C7.911,1.73,7.186,1.829,7.12,1.829C6.955,1.927,6.922,2.026,6.889,2.52C6.823,3.277,6.758,3.737,6.56,4.198
	C6.461,4.461,6.231,4.823,6.099,4.954L6,5.02L5.901,4.954C5.769,4.823,5.539,4.461,5.44,4.198C5.242,3.737,5.177,3.277,5.111,2.52
	C5.078,2.026,5.045,1.927,4.88,1.829C4.781,1.796,2.046,1.5,1.815,1.5C1.782,1.5,1.716,1.533,1.65,1.566"/>
</svg>
