<?xml version="1.0" encoding="utf-8"?>
<!-- Generator: Adobe Illustrator 17.0.0, SVG Export Plug-In . SVG Version: 6.00 Build 0)  -->
<!DOCTYPE svg PUBLIC "-//W3C//DTD SVG 1.1//EN" "http://www.w3.org/Graphics/SVG/1.1/DTD/svg11.dtd">
<svg version="1.1" id="Layer_1" xmlns="http://www.w3.org/2000/svg" xmlns:xlink="http://www.w3.org/1999/xlink" x="0px" y="0px"
	 width="16.007px" height="8.812px" viewBox="0 0 16.007 8.812" enable-background="new 0 0 16.007 8.812" xml:space="preserve">
<g id="layer1" transform="matrix(0.117858,0,0,0.117873,-1.4645,-24.78159)">
	<path id="path1884" fill="#010101" d="M94.058,271.277c0,7.58-6.145,13.724-13.724,13.724s-13.724-6.145-13.724-13.724
		s6.145-13.724,13.724-13.724S94.058,263.697,94.058,271.277L94.058,271.277z"/>
	<path id="path2772" fill="#010101" d="M12.434,283.917c5.779-39.006,33.227-73.678,67.899-73.678s62.12,34.672,67.899,73.678
		c0.289,1.445-6.934,1.445-7.223,0c-7.223-27.449-26.004-53.452-60.676-53.452s-53.452,26.004-60.676,53.452
		C19.369,285.362,12.145,285.362,12.434,283.917z"/>
</g>
</svg>
