<?xml version="1.0" encoding="utf-8"?>
<!-- Generator: Adobe Illustrator 17.0.0, SVG Export Plug-In . SVG Version: 6.00 Build 0)  -->
<!DOCTYPE svg PUBLIC "-//W3C//DTD SVG 1.1//EN" "http://www.w3.org/Graphics/SVG/1.1/DTD/svg11.dtd">
<svg version="1.1" id="Layer_1" xmlns="http://www.w3.org/2000/svg" xmlns:xlink="http://www.w3.org/1999/xlink" x="0px" y="0px"
	 width="9.879px" height="40.24px" viewBox="0 0 9.879 40.24" enable-background="new 0 0 9.879 40.24" xml:space="preserve">
<g>
	<path d="M-0.332,21.262l0-8.183h0.669c0,1.827,0.89,3.586,2.673,5.279c2.583,2.45,4.432,4.577,5.545,6.381
		c0.98,1.604,1.471,3.475,1.471,5.613c0,0.802-0.067,1.559-0.201,2.272C9.2,35.808,8.098,38.347,6.517,40.24l-0.167-0.2
		c0.491-0.557,0.98-1.347,1.471-2.372c0.89-1.826,1.336-3.674,1.336-5.546c0-1.47-0.29-2.894-0.869-4.275
		c-0.691-1.649-1.804-3.102-3.341-4.361c-1.536-1.257-3.084-1.998-4.644-2.221L-0.332,21.262z"/>
</g>
</svg>
