<?xml version="1.0" encoding="utf-8"?>
<!-- Generator: Adobe Illustrator 17.0.0, SVG Export Plug-In . SVG Version: 6.00 Build 0)  -->
<!DOCTYPE svg PUBLIC "-//W3C//DTD SVG 1.1//EN" "http://www.w3.org/Graphics/SVG/1.1/DTD/svg11.dtd">
<svg version="1.1" id="Layer_1" xmlns="http://www.w3.org/2000/svg" xmlns:xlink="http://www.w3.org/1999/xlink" x="0px" y="0px"
	 width="9.879px" height="48.117px" viewBox="0 -8.133 9.879 48.117" enable-background="new 0 -8.133 9.879 48.117"
	 xml:space="preserve">
<g id="g32" transform="matrix(1.000064,0,0,1.000064,146.2603,25.270511)">
	<path id="path34" vector-effect="non-scaling-stroke" fill="#010101" d="M-146.583-3.191h0.666
		c1.519,1.195,2.758,2.221,3.719,3.076s1.906,1.969,2.836,3.34s1.395,2.631,1.395,3.779c0,2.226-0.264,5.846-2.323,7.709
		c0,0,3.9-3.786,4.028-7.648c0.044-1.312-0.312-3.026-0.725-4.069c-0.684-1.359-1.522-2.637-2.513-3.832l-2.929-3.551
		c-0.961-1.172-1.782-2.443-2.464-3.814s-1.023-2.701-1.023-3.99h-0.666L-146.583-3.191"/>
</g>
</svg>
