<?xml version="1.0" encoding="utf-8"?>
<!-- Generator: Adobe Illustrator 17.0.0, SVG Export Plug-In . SVG Version: 6.00 Build 0)  -->
<!DOCTYPE svg PUBLIC "-//W3C//DTD SVG 1.1//EN" "http://www.w3.org/Graphics/SVG/1.1/DTD/svg11.dtd">
<svg version="1.1" id="Layer_1" xmlns="http://www.w3.org/2000/svg" xmlns:xlink="http://www.w3.org/1999/xlink" x="0px" y="0px"
	 width="40.387px" height="113.167px" viewBox="0 0 40.387 113.167" enable-background="new 0 0 40.387 113.167"
	 xml:space="preserve">
<g id="layer1" transform="translate(0,-977.62215)">
	<g id="text2824" transform="matrix(0.99974987,0,0,0.99997083,-112.50645,534.65124)">
		<path id="path2829" fill="#010101" d="M152.931,462.531c-6.844,8.156-10.266,14.25-10.266,18.281
			c0,3.891,3.258,9.727,9.773,17.508l-2.039,2.883c-3.281-1.922-6.094-2.883-8.438-2.883c-3.047,0-4.57,1.828-4.57,5.484
			c0,3.75,1.664,7.477,4.992,11.18l-1.828,2.742c-9.234-6.844-13.852-12.937-13.852-18.281c0-2.719,0.937-4.875,2.813-6.469
			c1.734-1.5,3.984-2.25,6.75-2.25c1.781,0,3.75,0.469,5.906,1.406l-14.133-18.773c6.703-5.906,10.055-11.25,10.055-16.031
			c0-3.797-2.273-8.578-6.82-14.344h5.625L152.931,462.531"/>
	</g>
</g>
</svg>
