<?xml version="1.0" encoding="utf-8"?>
<!-- Generator: Adobe Illustrator 17.0.0, SVG Export Plug-In . SVG Version: 6.00 Build 0)  -->
<!DOCTYPE svg PUBLIC "-//W3C//DTD SVG 1.1//EN" "http://www.w3.org/Graphics/SVG/1.1/DTD/svg11.dtd">
<svg version="1.1" id="Layer_1" xmlns="http://www.w3.org/2000/svg" xmlns:xlink="http://www.w3.org/1999/xlink" x="0px" y="0px"
	 width="17.497px" height="46.267px" viewBox="0 0 17.497 46.267" enable-background="new 0 0 17.497 46.267" xml:space="preserve">
<g id="layer1" transform="translate(-475.06688,-159.77527)">
	<g id="g92" transform="matrix(1.8,0,0,1.8,-513.75672,35.085269)">
		<path id="path94" fill="#010101" d="M555.409,75.789c-0.516,0.101-0.918,0.461-1.094,0.957c-0.043,0.16-0.043,0.199-0.043,0.418
			c0,0.218,0,0.3,0.043,0.418c0.137,0.441,0.418,0.777,0.856,0.976c0.297,0.16,0.437,0.18,0.855,0.18
			c0.52,0,0.957-0.078,1.657-0.297c0.179-0.063,0.316-0.102,0.316-0.102c0.019,0-0.16,0.7-0.399,1.536
			c-0.296,1.175-0.417,1.554-0.457,1.671c-0.16,0.301-0.5,0.758-0.718,0.957c-0.2,0.18-0.317,0.219-0.516,0.141
			c-0.18-0.098-0.242-0.199-0.359-0.738c-0.102-0.399-0.18-0.617-0.34-0.778c-0.418-0.457-1.137-0.515-1.692-0.156
			c-0.261,0.176-0.46,0.457-0.578,0.754c-0.043,0.16-0.043,0.199-0.043,0.418c0,0.301,0.024,0.461,0.161,0.699
			c0.199,0.399,0.617,0.719,1.097,0.836c0.219,0.063,0.778,0.063,1.156,0c0.317-0.058,0.696-0.16,1.075-0.277
			c0.179-0.059,0.32-0.102,0.32-0.102c0,0.02-0.797,3.051-0.84,3.11c-0.156,0.34-0.476,0.758-0.715,0.996
			c-0.258,0.258-0.398,0.301-0.617,0.219c-0.18-0.098-0.242-0.2-0.359-0.739c-0.102-0.398-0.18-0.617-0.34-0.773
			c-0.418-0.461-1.137-0.52-1.692-0.16c-0.261,0.179-0.46,0.457-0.578,0.758c-0.043,0.156-0.043,0.199-0.043,0.417
			c0,0.219,0,0.297,0.043,0.418c0.137,0.438,0.418,0.778,0.856,0.977c0.32,0.16,0.437,0.18,0.875,0.18c0.32,0,0.422,0,0.679-0.043
			c0.36-0.059,0.739-0.176,1.157-0.297l0.258-0.102v0.063c-0.02,0.078-1.696,6.375-1.715,6.414c-0.02,0.082,0.34,0.238,0.558,0.238
			c0.219,0,0.539-0.137,0.559-0.238c0.019-0.02,0.976-4.145,2.172-9.164c2.133-9.086,2.133-9.106,2.094-9.168
			c-0.063-0.078-0.161-0.117-0.282-0.117c-0.14,0.019-0.199,0.078-0.34,0.316c-0.277,0.481-0.597,0.898-0.773,1.039
			c-0.121,0.078-0.223,0.078-0.379,0.02c-0.18-0.102-0.242-0.2-0.359-0.739c-0.121-0.539-0.262-0.777-0.559-0.976
			C556.089,75.769,555.729,75.711,555.409,75.789z"/>
	</g>
</g>
</svg>
