<?xml version="1.0" encoding="utf-8"?>
<!-- Generator: Adobe Illustrator 17.0.0, SVG Export Plug-In . SVG Version: 6.00 Build 0)  -->
<!DOCTYPE svg PUBLIC "-//W3C//DTD SVG 1.1//EN" "http://www.w3.org/Graphics/SVG/1.1/DTD/svg11.dtd">
<svg version="1.1" id="Layer_1" xmlns="http://www.w3.org/2000/svg" xmlns:xlink="http://www.w3.org/1999/xlink" x="0px" y="0px"
	 width="13.378px" height="28.389px" viewBox="0 0 13.378 28.389" enable-background="new 0 0 13.378 28.389" xml:space="preserve">
<g id="layer1" transform="translate(-482.02112,-143.61753)">
	<g id="g128" transform="matrix(1.8,0,0,1.8,-471.40868,9.4615275)">
		<path id="path130" fill="#010101" d="M533.233,81.08c-0.52,0.098-0.918,0.457-1.098,0.953c-0.039,0.16-0.039,0.199-0.039,0.418
			c0,0.301,0.019,0.461,0.16,0.699c0.199,0.399,0.617,0.719,1.094,0.836c0.5,0.141,1.336,0.02,2.293-0.297l0.238-0.082l-1.176,3.25
			l-1.156,3.246c0,0,0.039,0.02,0.102,0.063c0.117,0.078,0.316,0.137,0.457,0.137c0.238,0,0.539-0.137,0.578-0.258
			c0-0.039,0.558-1.934,1.234-4.184l1.195-4.125l-0.039-0.058c-0.097-0.121-0.296-0.16-0.418-0.063
			c-0.039,0.039-0.101,0.121-0.14,0.18c-0.18,0.301-0.637,0.836-0.875,1.035c-0.219,0.18-0.34,0.199-0.539,0.121
			c-0.18-0.098-0.239-0.199-0.36-0.738c-0.117-0.535-0.257-0.778-0.558-0.977C533.908,81.057,533.549,80.998,533.233,81.08z"/>
	</g>
</g>
</svg>
