<?xml version="1.0" encoding="utf-8"?>
<!-- Generator: Adobe Illustrator 17.0.0, SVG Export Plug-In . SVG Version: 6.00 Build 0)  -->
<!DOCTYPE svg PUBLIC "-//W3C//DTD SVG 1.1//EN" "http://www.w3.org/Graphics/SVG/1.1/DTD/svg11.dtd">
<svg version="1.1" id="Layer_1" xmlns="http://www.w3.org/2000/svg" xmlns:xlink="http://www.w3.org/1999/xlink" x="0px" y="0px"
	 width="25.329px" height="64.101px" viewBox="0 0 25.329 64.101" enable-background="new 0 0 25.329 64.101" xml:space="preserve">
<path fill="#010101" d="M25.329,3.605c-0.104-0.176-0.247-0.247-0.464-0.247c-0.322,0-0.392,0.07-0.716,0.682
	c-0.464,0.893-0.936,1.539-1.258,1.793c-0.176,0.14-0.36,0.14-0.641,0.036c-0.322-0.184-0.436-0.36-0.646-1.33
	c-0.218-0.97-0.472-1.399-1.006-1.757c-0.506-0.324-1.145-0.428-1.723-0.288c-0.934,0.182-1.652,0.83-1.969,1.723
	c-0.077,0.288-0.077,0.358-0.077,0.752c0,0.392,0,0.54,0.077,0.752c0.247,0.794,0.752,1.399,1.541,1.757
	c0.569,0.288,0.787,0.324,1.575,0.324c0.542,0,0.752,0,1.188-0.07c0.569-0.106,1.357-0.324,1.969-0.535l0.394-0.148l-0.036,0.148
	c-0.034,0.07-0.288,1.321-0.612,2.756l-0.95,3.115c-0.464,0.893-0.936,1.539-1.258,1.793c-0.176,0.14-0.36,0.14-0.641,0.036
	c-0.114-0.065-0.201-0.131-0.277-0.229c-0.123-0.183-0.215-0.477-0.342-1.062c-0.114-0.508-0.241-0.863-0.409-1.141
	c-0.158-0.276-0.355-0.474-0.624-0.654c-0.506-0.324-1.145-0.428-1.723-0.288c-0.934,0.182-1.652,0.83-1.969,1.723
	c-0.078,0.288-0.078,0.358-0.078,0.752c0,0.392,0,0.54,0.077,0.752c0.124,0.398,0.312,0.748,0.569,1.043
	c0.26,0.311,0.59,0.566,0.999,0.752c0.569,0.288,0.787,0.324,1.575,0.324c0.542,0,0.752,0,1.188-0.07
	c0.569-0.106,1.357-0.324,1.969-0.535l0.354-0.132l-0.023,0.094c-0.031,0.063-0.241,1.088-0.519,2.34h0.036
	c-0.033,0.149-0.067,0.3-0.102,0.455l-0.95,3.115c-0.464,0.893-0.936,1.539-1.258,1.793c-0.176,0.14-0.36,0.14-0.641,0.036
	c-0.322-0.184-0.436-0.36-0.646-1.33c-0.218-0.97-0.472-1.399-1.006-1.757c-0.506-0.324-1.145-0.428-1.723-0.288
	c-0.934,0.182-1.652,0.83-1.969,1.723c-0.077,0.288-0.077,0.358-0.077,0.752c0,0.392,0,0.54,0.077,0.752
	c0.247,0.794,0.752,1.399,1.541,1.757c0.569,0.288,0.787,0.324,1.575,0.324c0.542,0,0.752,0,1.188-0.07
	c0.569-0.106,1.357-0.324,1.969-0.535l0.394-0.148l-0.036,0.148c-0.034,0.07-0.288,1.321-0.612,2.756
	c-0.569,2.511-0.605,2.659-0.787,2.981c-0.394,0.823-0.963,1.611-1.364,1.865c-0.211,0.14-0.394,0.14-0.641,0.034
	c-0.322-0.176-0.436-0.358-0.646-1.328c-0.184-0.718-0.324-1.111-0.612-1.4c-0.752-0.823-2.047-0.927-3.051-0.281
	c-0.464,0.317-0.823,0.823-1.033,1.357c-0.077,0.288-0.077,0.358-0.077,0.752c0,0.542,0.034,0.83,0.288,1.258
	c0.358,0.718,1.111,1.294,1.976,1.505c0.392,0.113,1.399,0.113,2.081,0c0.569-0.104,1.251-0.288,1.933-0.499
	c0.324-0.106,0.542-0.184,0.576-0.184s-1.073,5.134-1.292,5.598c-0.219,0.464-0.788,1.364-1.217,1.827
	c-0.472,0.43-0.682,0.508-1.076,0.36c-0.324-0.176-0.436-0.36-0.646-1.33c-0.184-0.716-0.324-1.111-0.612-1.391
	c-0.752-0.83-2.047-0.936-3.051-0.288c-0.464,0.322-0.823,0.823-1.042,1.364C8.24,40.53,8.24,40.607,8.24,41
	c0,0.535,0.036,0.824,0.29,1.253c0.358,0.716,1.111,1.294,1.975,1.505c0.929,0.252,2.475,0.041,4.234-0.535
	c0.245-0.106,0.499-0.184,0.499-0.184c0,0.043-0.288,1.224-0.612,2.693c-0.535,2.511-0.569,2.693-0.752,3.01
	c-0.288,0.612-0.927,1.478-1.364,1.87c-0.358,0.324-0.603,0.394-0.963,0.247c-0.322-0.176-0.436-0.358-0.646-1.321
	c-0.184-0.718-0.324-1.112-0.612-1.4c-0.752-0.83-2.047-0.934-3.051-0.288c-0.464,0.324-0.823,0.823-1.033,1.364
	c-0.08,0.288-0.08,0.358-0.08,0.752c0,0.535,0.034,0.823,0.288,1.251c0.358,0.718,1.111,1.294,1.975,1.512
	c0.929,0.247,2.722,0,4.48-0.612c0.218-0.07,0.358-0.104,0.358-0.104c0,0.034-2.511,11.291-2.615,11.65
	c0,0.077,0.034,0.113,0.175,0.184c0.22,0.14,0.578,0.254,0.83,0.254c0.247,0,0.605-0.113,0.823-0.254
	c0.148-0.07,0.184-0.106,0.22-0.288"/>
</svg>
