<?xml version="1.0" encoding="utf-8"?>
<!-- Generator: Adobe Illustrator 17.0.0, SVG Export Plug-In . SVG Version: 6.00 Build 0)  -->
<!DOCTYPE svg PUBLIC "-//W3C//DTD SVG 1.1//EN" "http://www.w3.org/Graphics/SVG/1.1/DTD/svg11.dtd">
<svg version="1.1" id="Layer_1" xmlns="http://www.w3.org/2000/svg" xmlns:xlink="http://www.w3.org/1999/xlink" x="0px" y="0px"
	 width="10.709px" height="37.259px" viewBox="22.359 14.125 10.709 37.259" enable-background="new 22.359 14.125 10.709 37.259"
	 xml:space="preserve">
<g id="layer1" transform="translate(0,-977.62215)">
	<g id="text2824" transform="matrix(0.99974987,0,0,0.99997083,-112.50645,534.65124)">
		<path id="path2829" fill="#010101" d="M144.735,473.671c-2.566,3.059-3.85,5.344-3.85,6.855c0,1.459,1.222,3.648,3.665,6.566
			l-0.765,1.081c-1.23-0.721-2.285-1.081-3.164-1.081c-1.143,0-1.714,0.685-1.714,2.056c0,1.406,0.624,2.804,1.872,4.193
			l-0.686,1.028c-3.463-2.566-5.195-4.851-5.195-6.855c0-1.02,0.351-1.828,1.055-2.426c0.65-0.563,1.494-0.844,2.531-0.844
			c0.668,0,1.406,0.176,2.215,0.527l-5.3-7.04c2.514-2.215,3.771-4.219,3.771-6.012c0-1.424-0.852-3.217-2.557-5.379h2.109
			L144.735,473.671"/>
	</g>
</g>
</svg>
