<?xml version="1.0" encoding="utf-8"?>
<!-- Generator: Adobe Illustrator 17.0.0, SVG Export Plug-In . SVG Version: 6.00 Build 0)  -->
<!DOCTYPE svg PUBLIC "-//W3C//DTD SVG 1.1//EN" "http://www.w3.org/Graphics/SVG/1.1/DTD/svg11.dtd">
<svg version="1.1" id="Layer_1" xmlns="http://www.w3.org/2000/svg" xmlns:xlink="http://www.w3.org/1999/xlink" x="0px" y="0px"
	 width="38.75px" height="51.958px" viewBox="-11.082 0 38.75 51.958" enable-background="new -11.082 0 38.75 51.958"
	 xml:space="preserve">
<g>
	<path d="M4.325,15.558v-0.399c1.68-0.378,2.373-0.672,2.373-2.478V2.226c0-0.756-0.189-1.554-0.63-1.554H5.522
		c-1.995,0-3.842,4.472-3.842,4.472L1.176,4.976L1.785,0h12.766l0.608,4.976l-0.504,0.168c0,0-1.848-4.472-3.842-4.472h-0.546
		c-0.441,0-0.63,0.798-0.63,1.554v10.456c0,1.806,0.693,2.1,2.373,2.478v0.399H4.325V15.558z"/>
	<path d="M9.007,33.757v-0.42c1.239-0.188,1.722-0.314,1.722-0.86c0-0.189-0.063-0.462-0.189-0.819l-0.987-2.813H4.346l-0.987,2.813
		c-0.105,0.273-0.147,0.504-0.147,0.672c0,0.798,0.84,0.798,1.764,1.008v0.42H0v-0.42c1.722-0.252,2.142-0.944,2.394-1.616
		L7.58,17.696h0.756l5.69,14.025c0.525,1.322,1.638,1.448,2.31,1.616v0.42C16.336,33.757,9.007,33.757,9.007,33.757z M6.908,21.748
		l-2.31,6.424h4.724L6.908,21.748z"/>
	<path d="M0.956,51.958v-0.42c1.176-0.126,2.058-0.63,2.058-1.658V38.5c0-1.05-0.504-1.407-2.058-1.68v-0.4H7.78
		c2.037,0,5.9,0.084,5.9,3.465c0,2.456-2.268,3.443-4.305,3.821c1.302,0.063,5.354,0.462,5.354,3.905
		c0,3.758-3.78,4.346-6.362,4.346H0.956V51.958z M7.674,43.475c1.554,0,3.023-0.524,3.023-3.443c0-2.855-2.184-3.002-2.813-3.002
		H7.002c-1.008,0-1.113,0.672-1.113,1.47v4.976L7.674,43.475L7.674,43.475z M8.325,51.328c1.848,0,3.275-1.428,3.275-3.737
		c0-3.506-2.813-3.527-3.821-3.527H5.89v5.816c0,0.818,0.231,1.448,1.449,1.448C7.339,51.328,8.325,51.328,8.325,51.328z"/>
</g>
</svg>
