<?xml version="1.0" encoding="utf-8"?>
<!-- Generator: Adobe Illustrator 17.0.0, SVG Export Plug-In . SVG Version: 6.00 Build 0)  -->
<!DOCTYPE svg PUBLIC "-//W3C//DTD SVG 1.1//EN" "http://www.w3.org/Graphics/SVG/1.1/DTD/svg11.dtd">
<svg version="1.1" id="Layer_1" xmlns="http://www.w3.org/2000/svg" xmlns:xlink="http://www.w3.org/1999/xlink" x="0px" y="0px"
	 width="11.872px" height="11.256px" viewBox="0 0 11.872 11.256" enable-background="new 0 0 11.872 11.256" xml:space="preserve">
<g>
	<path fill="#010101" d="M8.288,3.892C8.456,4.135,8.53,4.443,8.513,4.816C8.53,4.499,8.698,4.182,9.017,3.864
		c0.392-0.392,0.867-0.588,1.428-0.588c0.952,0,1.428,0.467,1.428,1.4c0,0.262-0.074,0.472-0.224,0.63
		c-0.149,0.159-0.309,0.229-0.477,0.21C10.725,5.46,10.5,5.208,10.5,4.76c0-0.634-0.149-0.952-0.448-0.952
		c-0.354,0-0.709,0.355-1.063,1.064l-1.736,5.936h-1.68l0.42-1.512c0.074,0.224-0.327,0.598-1.204,1.12
		c-0.934,0.56-1.792,0.84-2.576,0.84c-0.971,0-1.456-0.28-1.456-0.84c0-0.168,0.093-0.55,0.28-1.148l1.4-4.62H0l0.392-1.036H2.8
		l0.756-2.548L5.572,0L4.508,3.612l1.4-0.14C7.215,3.342,8.008,3.482,8.288,3.892z M4.144,4.676L3.08,8.26
		C2.875,8.951,2.772,9.343,2.772,9.436c0,0.486,0.168,0.728,0.504,0.728c0.411,0,1.022-0.242,1.834-0.728
		C5.922,8.951,6.3,8.643,6.244,8.512l1.008-3.36c0.149-0.467-0.084-0.737-0.7-0.812C6.234,4.303,5.777,4.322,5.18,4.396
		C4.583,4.471,4.237,4.564,4.144,4.676z"/>
</g>
</svg>
