<?xml version="1.0" encoding="utf-8"?>
<!-- Generator: Adobe Illustrator 17.0.0, SVG Export Plug-In . SVG Version: 6.00 Build 0)  -->
<!DOCTYPE svg PUBLIC "-//W3C//DTD SVG 1.1//EN" "http://www.w3.org/Graphics/SVG/1.1/DTD/svg11.dtd">
<svg version="1.1" id="层_1" xmlns="http://www.w3.org/2000/svg" xmlns:xlink="http://www.w3.org/1999/xlink" x="0px" y="0px"
	 width="10.28px" height="44.62px" viewBox="0 0 10.28 44.62" enable-background="new 0 0 10.28 44.62" xml:space="preserve">
<path fill-rule="evenodd" clip-rule="evenodd" d="M9.68,0H1.23v1.88h2.8v10.87h2.82V1.88h2.83V0z M3.81,23.87l0.55-2.69
	c0.14-1.07,0.35-2.42,0.51-3.3H4.9c0.16,0.88,0.36,2.19,0.52,3.06l0.54,2.93H3.81z M6.75,15.87H3.22L0,28.75h2.81l0.67-3h2.81
	l0.71,3h2.88L6.75,15.87z M4.34,39.75h0.63c1.4,0,2.63,0.38,2.63,1.48c0,1.06-1.1,1.51-2.35,1.51c-0.39,0-0.67,0-0.91-0.04V39.75z
	 M4.34,37.87v-3.89c0.22-0.06,0.54-0.1,1.04-0.1c0.57,0,1.17,0.58,1.17,1.92c0,1.21-0.6,2.07-1.64,2.07H4.34z M8.15,38.6
	c0.61-0.51,1.18-1.81,1.18-3.26c0-1.4-0.48-2.19-1.28-2.66C7.14,32.15,6.1,32,4.82,32c-1.23,0-2.54,0.1-3.28,0.23v12.23
	c0.62,0.09,1.55,0.16,2.75,0.16c2.77,0,4.17-0.38,4.94-1.05c0.68-0.58,1.05-1.41,1.05-2.27c0-1.27-0.8-2.31-2.13-2.66V38.6z"/>
</svg>
